<svg width="758" height="676" viewBox="0 0 758 676" fill="none" xmlns="http://www.w3.org/2000/svg">
<path d="M390.7 554.473C390.7 554.473 390.7 554.422 390.7 554.41L382.518 559.779H368.547C365.659 559.779 355.059 546.776 355.059 546.776L349.282 521.738C349.282 521.738 331.939 513.557 330.501 512.59C329.051 511.623 283.79 513.074 283.79 513.074C283.79 513.074 284.757 515.962 281.869 520.784C278.981 525.605 268.381 524.639 262.604 527.043C258.8 528.621 252.311 532.692 247.615 535.3C248.468 537.883 249.753 540.682 251.038 541.967C252.959 543.888 256.815 544.371 258.265 546.305C259.716 548.226 262.121 601.687 262.121 601.687C262.121 601.687 265.493 609.397 268.865 611.318C272.237 613.252 276.576 613.723 276.576 613.723C276.576 613.723 277.543 620.949 279.464 622.87C281.386 624.791 280.915 625.758 278.026 628.163C277.925 628.252 277.823 628.443 277.734 628.684C278.446 628.697 279.172 628.812 279.935 629.066C286.908 631.394 292.71 634.868 293.881 645.326C295.039 655.771 321.76 653.455 333.377 653.455C344.994 653.455 365.9 643.01 379.846 625.58C388.422 614.868 398.742 603.723 407.051 597.806C400.46 584.791 391.196 566.051 391.196 566.051C391.196 566.051 391.196 558.341 390.713 554.499L390.7 554.473Z" fill="#ADD2FF"/>
<path d="M629.09 539.067C627.168 536.663 612.23 527.515 612.23 527.515C612.23 527.515 608.858 516.917 604.621 514.996C600.384 513.075 593.932 513.075 585.267 510.657C576.602 508.253 565.519 501.993 561.193 499.589C556.854 497.184 549.639 486.103 548.672 482.731C547.705 479.36 546.267 462.502 547.221 457.21C547.73 454.385 547.832 450.212 547.819 446.917C544.409 446.383 541.686 445.543 540.147 444.372C526.061 433.596 509.939 430.428 499.492 423.469C489.033 416.497 461.154 418.825 456.51 423.469C454.245 425.734 448.633 430.861 442.398 436.726C446.241 442.858 453.112 454.118 453.799 457.222C454.766 461.561 459.576 480.339 459.576 480.339C459.576 480.339 464.87 488.049 466.804 489.487C468.725 490.937 469.692 514.042 470.659 520.301C471.626 526.561 479.324 533.304 483.18 535.225C487.035 537.159 495.217 541.484 495.217 541.484C495.217 541.484 500.04 547.26 501.477 548.227C502.915 549.194 505.816 567.49 508.221 574.716C510.626 581.942 514.965 588.685 514.965 588.685C522.193 586.281 538.569 582.909 538.569 582.909L546.28 572.795C546.28 572.795 551.102 567.019 562.172 567.019C573.243 567.019 578.065 573.278 578.065 573.278L578.549 586.281C578.549 586.281 580.47 592.54 584.325 595.912C588.181 599.283 597.33 605.059 600.218 609.398C600.32 609.551 600.447 609.78 600.574 610.034C603.526 609.767 607 609.907 611.046 610.492C627.308 612.82 630.795 601.205 637.768 595.39C642.654 591.319 648.112 595.797 652.948 592.439C644.74 575.861 632.5 560.276 632.5 560.276C630.578 557.871 631.049 541.497 629.128 539.093L629.09 539.067Z" fill="#EAEAEA"/>
<path d="M101.248 379.678C104.136 378.711 111.847 379.194 111.847 379.194C111.847 379.194 116.657 380.645 118.107 384.016C119.558 387.388 128.707 410.988 131.112 412.909C133.517 414.83 145.083 417.718 148.926 419.652C152.781 421.573 166.74 413.393 166.74 413.393C171.079 407.617 174.921 400.874 174.921 398.952C174.921 397.031 176.372 386.917 175.888 384.029C175.405 381.141 178.828 375.848 178.828 375.848C185.801 372.362 198.576 377.006 202.062 375.848C203.857 375.25 204.722 372.489 205.154 369.958C191.361 357.807 175.15 341.242 172.86 337.438C169.374 331.624 168.368 320.097 155.593 310.797C142.818 301.51 131.201 298.024 131.201 298.024C131.201 298.024 117.255 275.95 105.638 267.82C94.0203 259.69 85.8894 249.232 85.8894 249.232L58.0105 230.645C58.0105 230.645 48.709 237.617 53.3661 249.232C58.0105 260.848 59.1684 268.978 53.3661 275.95C47.5638 282.922 39.433 285.25 40.5909 294.538C41.7488 303.825 47.5638 309.639 30.1315 315.441C12.7119 321.242 15.0277 335.187 12.7119 345.645C10.3834 356.103 -5.8783 342.159 2.25253 359.589C10.3834 377.006 17.3563 379.334 28.9736 382.82C40.5909 386.306 45.2353 388.634 46.3932 399.08C47.5511 409.538 54.524 408.367 61.4969 399.08C68.4699 389.792 78.9165 389.792 94.0203 392.108C94.0203 392.108 94.6819 392.578 95.6235 393.507C97.4686 387.031 99.7462 380.199 101.235 379.703L101.248 379.678Z" fill="#EAEAEA"/>
<path d="M755.061 378.15C752.733 373.506 748.088 357.247 753.903 346.789C759.718 336.331 752.745 330.529 746.93 328.201C742.159 326.293 738.965 316.572 737.972 313.15C737.756 312.399 737.642 311.941 737.642 311.941C737.642 311.941 708.605 331.687 688.844 335.173C669.096 338.659 679.555 335.173 669.096 338.659C658.636 342.145 640.059 353.761 638.888 364.219C638.163 370.695 636.242 379.575 633.506 388.15C636.305 391.662 640.11 395.86 642.082 395.58C645.454 395.097 648.342 398.952 647.859 403.761C647.375 408.583 641.115 423.99 641.115 423.99C641.115 423.99 644.003 426.878 648.342 430.249C652.681 433.621 657.008 448.061 657.008 448.061L668.091 449.028C668.091 449.028 669.541 450.949 671.946 453.366C674.351 455.784 675.318 455.287 683.016 455.287C683.92 455.287 684.798 455.427 685.637 455.644C692.19 446.076 698.527 435.402 699.291 429.27C700.448 419.982 700.448 409.524 700.448 409.524C700.448 409.524 730.656 402.552 746.918 396.751C763.179 390.936 757.377 382.807 755.049 378.163L755.061 378.15Z" fill="#ADD2FF"/>
<path d="M449.448 58.9775C447.044 66.2039 449.448 88.3541 447.527 93.6467C445.606 98.9393 445.122 105.199 445.122 105.199L463.42 124.461L475.457 126.382C475.457 126.382 497.966 152.794 510.754 170.199C511.034 170.199 511.289 170.186 511.569 170.199C521.684 170.682 524.089 169.232 524.089 169.232C524.089 169.232 523.606 154.308 528.428 146.598C533.238 138.888 532.284 102.782 532.767 99.41C533.251 96.0385 522.651 79.6645 524.102 74.3719C525.553 69.0792 525.553 59.9189 530.846 47.8833C533.658 41.4965 534.167 30.4787 534.014 21.5602C533.365 21.9037 532.704 22.2726 532.016 22.6925C520.399 29.6645 532.016 20.3642 506.453 19.2065C480.89 18.0487 493.678 12.2345 492.507 6.43293C491.35 0.631403 479.732 -0.539081 464.629 2.94692C449.525 6.43293 449.525 12.2345 448.367 23.8502C447.591 31.6619 448.367 35.2624 445.084 37.5016C448.087 46.4329 450.568 55.6314 449.461 58.9647L449.448 58.9775Z" fill="#EAEAEA"/>
<path d="M225.03 273.264C225.03 273.264 227.435 277.119 229.84 279.04C232.245 280.961 246.216 293.964 251.993 297.819C252.832 298.379 253.596 298.939 254.347 299.498C254.639 298.939 254.83 298.366 254.894 297.819C255.377 293.01 257.782 285.783 257.782 285.783L267.415 275.185L295.344 274.702L302.088 260.732C302.088 260.732 317.981 258.811 319.431 255.44C320.882 252.068 321.353 241.954 325.208 240.033C329.064 238.112 335.324 232.806 335.324 232.806L342.004 233.366C341.928 220.593 342.246 203.633 342.552 200.542C343.035 195.732 344.956 188.023 347.845 185.135C350.733 182.246 356.027 173.099 357.961 169.727C358.864 168.15 360.607 166.572 362.211 165.338C359.322 161.979 367.084 159.575 368.217 151.636C369.374 143.506 369.374 128.404 363.572 124.918C357.77 121.432 341.495 107.501 336.851 102.844C332.207 98.2007 322.905 98.2007 322.905 106.33C322.905 114.46 313.616 119.104 305.486 119.104C297.355 119.104 293.868 121.432 291.54 127.234C289.211 133.048 270.621 121.419 265.977 127.234C261.332 133.048 264.819 181.827 256.688 189.956C248.557 198.086 253.201 203.9 253.201 221.318C253.201 238.735 252.044 248.035 247.399 252.679C242.755 257.323 238.759 267.844 218.35 263.137C216.53 262.717 214.99 262.577 213.654 262.641L220.22 272.755L225.043 273.239L225.03 273.264Z" fill="#EAEAEA"/>
<path d="M100.294 467.322C108.476 469.243 112.331 469.244 112.331 469.244C112.331 469.244 112.815 475.503 116.67 477.424C120.526 479.345 133.046 478.391 133.046 478.391C133.046 478.391 146.051 463.467 151.344 462.5C156.637 461.534 161.46 459.612 163.381 462.017C165.302 464.422 166.269 474.053 171.092 476.941C175.902 479.829 194.696 477.908 194.696 477.908L202.407 462.5V429.269L216.861 415.783L217.828 405.185L214.456 400.363C211.084 395.554 203.374 376.292 202.101 375.808C198.615 376.966 185.839 372.322 178.867 375.808C178.867 375.808 175.444 381.101 175.927 383.989C176.411 386.877 174.96 396.992 174.96 398.913C174.96 400.834 171.105 407.577 166.778 413.353C166.778 413.353 152.807 421.534 148.964 419.612C145.109 417.691 133.555 414.803 131.15 412.869C128.745 410.948 119.597 387.348 118.146 383.976C116.696 380.605 111.886 379.154 111.886 379.154C111.886 379.154 104.175 378.671 101.286 379.638C99.7849 380.134 97.52 386.979 95.675 393.442C98.1053 395.796 102.533 401.126 103.36 409.472C104.518 421.088 102.203 444.32 99.874 448.964C97.8127 453.073 93.0411 461.737 96.0058 467.691C97.6473 467.182 99.1233 466.979 100.319 467.271L100.294 467.322Z" fill="#EAEAEA"/>
<path d="M279.451 622.858C277.53 620.924 276.563 613.71 276.563 613.71C276.563 613.71 272.224 613.227 268.852 611.306C265.48 609.385 262.108 601.675 262.108 601.675C262.108 601.675 259.703 548.227 258.252 546.293C256.815 544.372 252.959 543.889 251.025 541.955C249.74 540.67 248.455 537.871 247.602 535.288C245.159 536.649 243.187 537.616 242.36 537.616C239.955 537.616 234.649 531.357 229.839 528.469C228.401 531.357 221.174 533.761 218.285 536.179C215.626 538.392 204.429 535.733 187.314 536.408C187.378 538.138 187.887 540.275 189.299 543.1C195.102 554.716 203.245 574.461 203.245 584.919C203.245 595.377 213.705 589.563 216.02 600.021C218.349 610.479 225.322 642.998 228.796 651.128C232.282 659.258 245.057 655.772 250.872 655.772C256.687 655.772 263.648 651.128 265.976 642.998C268.05 635.759 271.957 628.532 277.721 628.685C277.81 628.443 277.899 628.252 278.013 628.163C280.902 625.759 281.385 624.792 279.451 622.871V622.858Z" fill="#EAEAEA"/>
<path d="M228.872 501.992C225.016 500.071 225.983 498.137 224.062 494.282C222.141 490.427 220.206 474.536 218.769 471.165C217.318 467.793 202.392 462.501 202.392 462.501L194.681 477.908C194.681 477.908 175.9 479.829 171.078 476.941C166.255 474.053 165.301 464.422 163.367 462.017C161.446 459.613 156.623 461.534 151.33 462.501C146.036 463.468 133.032 478.391 133.032 478.391C133.032 478.391 120.511 479.358 116.656 477.424C112.801 475.503 112.317 469.244 112.317 469.244C112.317 469.244 108.462 469.244 100.28 467.322C99.0837 467.043 97.6077 467.233 95.9663 467.742C96.348 468.518 96.8442 469.256 97.5186 469.918C103.334 475.719 97.5186 488.506 91.7163 497.793C85.9141 507.081 81.257 507.081 90.5584 521.025C99.8599 534.969 96.3734 539.613 89.4005 551.228C82.4276 562.844 78.9411 572.132 96.3734 566.33C113.806 560.529 123.094 572.132 137.04 562.844C150.986 553.557 154.473 543.099 159.117 537.284C163.761 531.47 157.959 524.511 171.892 516.381C171.892 516.381 181.194 515.223 186.996 523.353C191.386 529.511 187.149 531.012 187.34 536.406C204.441 535.732 215.651 538.391 218.311 536.177C221.199 533.773 228.426 531.356 229.864 528.468C231.315 525.579 228.897 501.979 228.897 501.979L228.872 501.992Z" fill="#EAEAEA"/>
<path d="M389.249 531.851C389.733 518.365 395.026 507.767 395.026 504.879C395.026 501.991 387.799 489.956 387.799 489.956C382.187 488.556 374.795 488.505 374.795 488.505C374.795 488.505 372.39 484.65 371.906 478.874C371.868 478.365 371.817 477.907 371.753 477.488C368.14 477.348 364.831 477.195 362.35 477.195C353.061 477.195 333.377 450.452 333.377 450.452C333.377 450.452 312.764 453.849 296.527 448.709C293.155 454.549 283.816 470.872 281.856 475.986C279.451 482.246 280.406 492.844 280.406 492.844C280.406 492.844 275.583 508.251 273.178 509.218C270.773 510.185 259.69 511.622 256.318 513.073C252.947 514.523 247.17 519.816 247.17 519.816C247.17 519.816 246.203 528.963 246.686 531.851C246.839 532.806 247.17 534.027 247.59 535.299C252.285 532.691 258.774 528.62 262.579 527.042C268.356 524.638 278.955 525.605 281.843 520.783C284.732 515.974 283.765 513.073 283.765 513.073C283.765 513.073 329.038 511.635 330.476 512.589C331.926 513.556 349.257 521.737 349.257 521.737L355.034 546.775C355.034 546.775 365.633 559.778 368.521 559.778H382.493L390.674 554.409C390.191 550.567 388.766 545.248 389.237 531.851H389.249Z" fill="#EAEAEA"/>
<path d="M636.572 158.622C630.757 148.164 633.085 137.718 633.085 137.718C633.085 137.718 612.167 133.074 604.621 127.26C597.076 121.446 599.391 99.3849 604.621 93.5706C609.851 87.7564 617.982 87.7564 615.653 76.1406C613.325 64.5248 606.364 57.5528 599.391 51.7513C599.391 51.7513 607.522 42.4638 609.851 35.4917C612.179 28.5197 616.824 25.0337 608.693 22.7182C600.562 20.39 588.945 23.876 583.13 16.9167C577.315 9.94467 576.157 2.97266 569.184 2.97266C562.211 2.97266 558.725 5.3009 554.08 12.2602C549.703 18.8124 544.308 16.1279 534.014 21.5859C534.154 30.5045 533.658 41.5223 530.846 47.909C525.552 59.9447 525.552 69.0923 524.102 74.3976C522.651 79.6902 533.251 96.0643 532.767 99.4358C532.283 102.807 533.251 138.927 528.428 146.624C523.618 154.334 524.089 169.258 524.089 169.258C524.089 169.258 521.684 170.708 511.568 170.225C511.288 170.212 511.021 170.225 510.754 170.225C512.892 173.125 514.762 175.784 516.2 178.024C516.62 178.66 517.002 179.283 517.345 179.856C518.834 182.349 520.475 184.945 522.155 187.553C530.26 200.072 539.498 212.604 539.498 212.604C543.71 214.296 556.409 217.451 559.513 218.214C571.143 211.624 586.285 203.265 588.614 202.973C592.469 202.489 611.734 203.94 618.478 200.568C619.979 199.817 621.303 199.309 622.473 198.978C620.705 196.917 619.42 194.029 619.127 189.996C617.969 173.736 630.744 184.181 634.231 178.38C637.717 172.578 642.361 169.092 636.559 158.634L636.572 158.622Z" fill="#EAEAEA"/>
<path d="M638.888 238.76C644.69 235.274 651.663 228.302 647.019 220.173L637.717 203.913C637.717 203.913 627.856 205.223 622.474 198.951C621.303 199.295 619.98 199.791 618.478 200.542C611.734 203.913 592.47 202.463 588.614 202.946C586.286 203.239 571.144 211.597 559.514 218.188C559.959 218.302 560.201 218.353 560.201 218.353L559.832 232.959L559.717 237.603L559.883 239.18L568.828 324.346C571.296 324.231 573.612 324.307 575.126 324.765C579.936 326.216 593.907 323.799 593.907 323.799C593.907 323.799 599.684 317.056 606.428 317.539C608.439 317.679 611.811 317.526 615.564 317.234C615.59 317.005 615.641 316.776 615.641 316.559C615.641 310.745 610.996 304.944 610.996 304.944C610.996 304.944 621.456 301.458 626.1 294.486C630.744 287.514 631.915 275.898 633.073 272.412C634.231 268.926 641.204 265.44 638.875 258.468C636.547 251.496 633.073 242.208 638.875 238.722L638.888 238.76Z" fill="#EAEAEA"/>
<path d="M612.167 357.247C608.68 352.603 609.838 342.145 604.608 335.173C604.608 335.173 614.839 323.316 615.577 317.26C611.823 317.552 608.451 317.705 606.441 317.565C599.697 317.082 593.92 323.825 593.92 323.825C593.92 323.825 579.949 326.229 575.139 324.792C573.625 324.334 571.309 324.27 568.84 324.372L568.891 324.792C568.891 324.792 565.379 333.659 562.147 341.14C560.442 345.084 558.814 348.659 557.808 350.313C557.312 351.14 556.93 352.273 556.6 353.596C555.009 360.033 554.996 371.369 552.999 377.756C550.594 385.466 538.073 402.794 538.073 402.794C538.073 402.794 537.589 411.942 536.152 415.797C535.172 418.418 533.301 424.13 532.207 427.54C547.158 434.359 548.214 441.751 585.471 431.585C585.471 431.585 596.757 425.937 611.034 403.71C620.959 388.252 623.288 377.909 625.107 367.031C626.062 361.306 626.138 358.405 626.138 358.405C626.138 358.405 615.678 361.891 612.192 357.247H612.167Z" fill="#EAEAEA"/>
<path d="M356.662 322.017C351.598 316.673 346.381 310.63 346.381 308.404C346.381 304.065 356.013 276.622 356.013 274.218C356.013 271.813 353.125 257.844 351.674 254.472C350.223 251.101 343.492 251.584 342.525 247.729C342.182 246.343 342.016 240.503 341.978 233.353L335.298 232.793C335.298 232.793 329.037 238.086 325.182 240.019C321.327 241.941 320.843 252.055 319.405 255.427C317.955 258.798 302.062 260.719 302.062 260.719L295.318 274.689L267.388 275.172L257.756 285.77C257.756 285.77 255.351 292.997 254.867 297.806C254.817 298.353 254.613 298.925 254.32 299.485C258.647 302.818 261.84 306.712 271.714 316.584C283.268 328.136 304.467 348.849 304.467 348.849C304.467 348.849 306.197 349.116 308.908 349.498C318.451 350.846 340.26 353.722 342.513 352.22C343.976 351.241 347.284 348.913 350.694 346.483C354.028 344.103 357.464 341.61 359.372 340.185C363.228 337.297 366.116 331.521 366.116 331.521C366.116 331.521 361.446 327.081 356.649 322.017H356.662Z" fill="#ADD2FF"/>
<path d="M296.527 448.722C289.478 446.496 283.255 442.666 279.909 436.241C271.905 420.847 272.936 406.037 272.936 406.037C272.936 406.037 235.094 388.06 222.548 382.959C219.697 381.801 214.824 378.162 209.213 373.429C207.889 372.323 206.553 371.165 205.166 369.943C204.746 372.475 203.881 375.236 202.074 375.834C203.347 376.317 211.058 395.58 214.43 400.389L217.801 405.211L216.834 415.809L202.38 429.295V462.526C202.38 462.526 217.305 467.819 218.756 471.19C220.206 474.562 222.128 490.452 224.049 494.307C225.97 498.162 225.016 500.083 228.859 502.017C228.859 502.017 231.264 525.618 229.826 528.506C234.648 531.394 239.942 537.653 242.347 537.653C243.174 537.653 245.146 536.686 247.589 535.325C247.169 534.053 246.838 532.831 246.686 531.877C246.202 528.989 247.169 519.842 247.169 519.842C247.169 519.842 252.946 514.549 256.318 513.099C259.69 511.661 270.773 510.211 273.178 509.244C275.583 508.277 280.405 492.87 280.405 492.87C280.405 492.87 279.438 482.272 281.856 476.012C283.828 470.898 293.155 454.574 296.527 448.735V448.722Z" fill="#ADD2FF"/>
<path d="M600.193 609.371C597.305 605.033 588.156 599.256 584.301 595.885C580.445 592.513 578.524 586.254 578.524 586.254L578.04 573.251C578.04 573.251 573.231 566.992 562.148 566.992C551.065 566.992 546.255 572.768 546.255 572.768L538.544 582.882C538.544 582.882 522.168 586.254 514.941 588.659C514.941 588.659 510.602 581.916 508.197 574.689C505.792 567.463 502.903 549.167 501.453 548.201C500.002 547.234 495.192 541.457 495.192 541.457C495.192 541.457 487.011 537.132 483.155 535.198C479.3 533.277 471.602 526.534 470.635 520.274C469.667 514.015 468.713 490.898 466.779 489.46C464.858 488.01 459.552 480.312 459.552 480.312C459.552 480.312 454.742 461.534 453.775 457.195C453.088 454.091 446.217 442.832 442.374 436.699C437.22 441.547 431.66 446.89 427.194 451.572C425.972 452.844 424.827 454.078 423.809 455.223C414.508 465.681 401.885 472.234 397.241 475.72C393.831 478.277 381.666 477.882 371.754 477.475C371.805 477.895 371.868 478.353 371.907 478.862C372.39 484.638 374.795 488.493 374.795 488.493C374.795 488.493 382.188 488.531 387.799 489.944C387.799 489.944 395.027 501.979 395.027 504.867C395.027 507.755 389.733 518.353 389.25 531.839C388.766 545.249 390.191 550.554 390.688 554.396C390.688 554.422 390.688 554.447 390.688 554.46C391.171 558.315 391.171 566.012 391.171 566.012C391.171 566.012 400.435 584.753 407.026 597.768C412.23 594.066 416.633 592.399 419.317 594.18C426.29 598.824 422.804 608.124 426.29 612.768C429.777 617.412 441.394 616.254 447.196 604.638C452.999 593.022 462.3 586.05 475.075 591.865C487.851 597.666 478.562 606.966 479.72 619.74C480.878 632.513 489.021 646.458 490.179 655.745C491.337 665.045 511.085 667.361 522.702 673.175C534.32 678.977 543.608 675.503 543.608 665.045C543.608 654.587 554.068 649.944 566.843 649.944C579.618 649.944 570.33 634.842 574.974 634.842C579.618 634.842 585.433 633.684 586.591 623.226C587.469 615.376 591.617 610.796 600.524 609.994C600.397 609.727 600.27 609.511 600.168 609.358L600.193 609.371Z" fill="#EAEAEA"/>
<path d="M671.946 453.353C669.541 450.948 668.09 449.015 668.09 449.015L657.008 448.048C657.008 448.048 652.669 433.607 648.342 430.236C644.003 426.864 641.115 423.976 641.115 423.976C641.115 423.976 647.375 408.569 647.859 403.747C648.342 398.938 645.454 395.083 642.082 395.567C640.097 395.847 636.305 391.661 633.506 388.137C631.826 393.417 629.828 398.582 627.614 402.997C621.799 414.613 604.024 433.9 593.577 440.859C585.255 446.406 561.13 448.976 547.808 446.89C547.82 450.185 547.719 454.358 547.21 457.183C546.242 462.475 547.693 479.333 548.66 482.704C549.627 486.076 556.842 497.144 561.181 499.562C565.52 501.966 576.59 508.226 585.255 510.63C593.921 513.035 600.372 513.035 604.609 514.969C608.846 516.89 612.218 527.488 612.218 527.488C612.218 527.488 627.144 536.635 629.078 539.04C630.999 541.445 630.528 557.819 632.45 560.223C632.45 560.223 644.69 575.808 652.898 592.386C654.959 590.961 656.893 588.111 658.636 582.551C664.451 563.964 669.096 575.579 677.227 572.093C685.357 568.607 680.713 562.806 681.871 555.834C683.029 548.862 688.844 555.834 695.817 546.546C702.79 537.259 698.145 518.671 709.763 516.343C709.763 516.343 716.736 514.015 714.407 504.727C712.078 495.427 703.96 504.727 688.844 498.913C673.74 493.111 678.384 482.653 678.384 482.653C678.384 482.653 667.925 479.167 676.056 468.709C678.817 465.16 682.253 460.516 685.637 455.592C684.798 455.376 683.92 455.236 683.016 455.236C675.305 455.236 674.351 455.719 671.946 453.315V453.353Z" fill="#EAEAEA"/>
<path d="M459.793 324.995C448.201 325.364 435.565 325.746 432.588 325.746C426.811 325.746 412.356 329.601 408.03 329.117C403.691 328.634 400.319 322.374 400.319 322.374C400.319 322.374 395.509 319.486 390.687 322.858C385.877 326.229 373.827 331.038 366.129 331.522C366.129 331.522 363.24 337.298 359.385 340.186C357.476 341.611 354.041 344.104 350.707 346.484C356.089 354.372 358.405 361.853 359.22 368.099L370.519 367.858L403.22 367.158L412.853 375.339H433.084C433.084 375.339 436.94 379.677 440.795 382.082C441.635 382.603 443.035 383.036 444.702 383.392C445.3 381.789 451.484 365.135 453.316 363.303C454.067 362.552 456.497 360.415 459.258 357.489C463.61 352.896 468.801 346.369 469.679 340.186C470.214 336.42 470.621 330.847 470.914 325.339C470.914 325.097 470.939 324.868 470.952 324.626C467.643 324.741 463.788 324.868 459.793 324.995Z" fill="#EAEAEA"/>
<path d="M517.357 179.843C517.013 179.27 516.619 178.66 516.212 178.011C514.761 175.772 512.904 173.125 510.766 170.212C497.965 152.807 475.469 126.395 475.469 126.395L463.431 124.474L445.134 105.212C445.134 105.212 445.617 98.9523 447.539 93.6597C449.46 88.367 447.055 66.2169 449.46 58.9905C450.567 55.6571 448.086 46.4586 445.083 37.5273C443.48 38.6215 440.935 39.3849 436.748 40.1482C423.973 42.4765 419.316 43.6342 415.842 59.8938C412.356 76.1533 407.712 85.4535 399.581 95.8988C399.581 95.8988 397.252 128.418 398.423 143.52C398.741 147.705 398.792 150.797 398.499 153.189C401.146 156.802 404.391 161.382 404.67 162.515C405.154 164.436 417.191 165.886 422.014 169.741C426.824 173.596 447.055 188.036 448.022 189.97C448.989 191.891 455.25 216.459 455.25 216.459C455.25 216.459 461.026 221.281 463.915 221.751C466.803 222.235 495.217 220.314 498.105 219.83C500.994 219.347 506.287 214.054 506.287 214.054C506.287 214.054 515.372 197.133 522.18 187.553C520.5 184.945 518.858 182.349 517.37 179.856L517.357 179.843Z" fill="#EAEAEA"/>
<path d="M451.37 406.649C448.482 398.469 444.626 383.532 444.626 383.532C444.626 383.532 444.652 383.481 444.677 383.392C443.023 383.036 441.611 382.604 440.771 382.082C436.915 379.677 433.06 375.339 433.06 375.339H412.828L403.196 367.158L370.495 367.858L359.195 368.1H358.394C358.394 368.1 361.282 377.26 344.906 395.568C334.192 407.54 326.176 416.395 321.9 421.102C326.481 425.301 330.388 429.397 333.314 432.743C341.445 442.031 349.576 455.975 361.193 461.789C372.81 467.591 392.558 466.433 399.531 460.631C406.504 454.83 436.712 422.298 444.843 415.326C446.739 413.698 449.474 412.413 452.694 411.357C452.414 410.059 451.994 408.507 451.332 406.649H451.37Z" fill="#EAEAEA"/>
<path d="M517.842 337.795L512.548 323.825L490.395 323.342C490.395 323.342 488.945 326.713 486.54 329.118C485.687 329.97 484.466 330.377 483.015 330.377C480.33 330.403 476.806 329.029 473.065 326.217C472.429 325.734 471.703 325.466 470.927 325.327C470.634 330.835 470.227 336.408 469.693 340.174C468.815 346.357 463.611 352.884 459.272 357.477C456.498 360.403 454.067 362.54 453.329 363.291C451.497 365.123 445.3 381.777 444.715 383.38C444.69 383.456 444.664 383.52 444.664 383.52C444.664 383.52 448.52 398.444 451.408 406.637C452.07 408.494 452.49 410.047 452.769 411.344C454.894 410.657 457.223 410.072 459.691 409.576C469.616 407.629 481.666 407.184 490.23 407.184C504.176 407.184 514.622 419.958 530.897 426.93C531.355 427.133 531.8 427.324 532.246 427.528C533.34 424.118 535.21 418.405 536.19 415.785C537.641 411.93 538.111 402.782 538.111 402.782C538.111 402.782 550.632 385.441 553.037 377.744C555.035 371.357 555.047 360.021 556.638 353.584L517.88 337.782L517.842 337.795Z" fill="#EAEAEA"/>
<path d="M359.233 368.111C358.418 361.864 356.103 354.384 350.72 346.496C347.31 348.938 344.002 351.267 342.538 352.233C340.286 353.735 318.477 350.859 308.934 349.511C306.223 349.129 304.493 348.862 304.493 348.862C304.493 348.862 283.294 328.162 271.74 316.597C261.866 306.725 258.66 302.831 254.346 299.498C253.608 298.926 252.845 298.378 251.992 297.819C246.215 293.964 232.244 280.961 229.839 279.04C227.434 277.119 225.029 273.264 225.029 273.264L220.207 272.781L213.641 262.666C203.92 263.2 205.879 275.618 199.746 281.737C192.773 288.709 185.8 284.066 176.512 287.552C168.852 290.427 162.769 296.445 160.873 298.48C160.466 298.913 160.25 299.167 160.25 299.167C160.25 299.167 179.362 315.325 181.156 325.885C182.416 333.289 190.979 340.338 203.754 350.796C211.631 357.246 216.237 362.602 223.49 367.959C228.007 371.279 233.542 374.6 241.558 378.162C260.976 386.788 273.038 393.442 288.613 399.931C289.809 400.427 291.03 400.923 292.277 401.432C303.424 405.898 313.782 413.658 321.925 421.114C326.2 416.406 334.204 407.552 344.931 395.58C361.307 377.284 358.418 368.137 358.418 368.137H359.22L359.233 368.111Z" fill="#EAEAEA"/>
<path d="M559.858 232.984L560.227 218.378C560.227 218.378 559.972 218.315 559.54 218.213C556.435 217.45 543.736 214.282 539.524 212.602C539.524 212.602 530.286 200.058 522.181 187.551C515.386 197.132 506.288 214.053 506.288 214.053C506.288 214.053 500.995 219.345 498.107 219.829C495.218 220.312 466.805 222.233 463.916 221.75C461.028 221.266 455.251 216.457 455.251 216.457C455.251 216.457 448.991 191.903 448.024 189.969C447.057 188.048 426.838 173.595 422.015 169.74C417.193 165.885 405.155 164.447 404.672 162.513C404.392 161.381 401.147 156.801 398.501 153.188C397.75 159.409 394.683 160.745 387.965 163.264C385.942 164.027 383.74 164.727 381.514 165.325C385.56 168.34 390.217 171.177 390.217 171.177C390.217 171.177 395.994 191.406 397.445 198.62C398.895 205.847 404.672 217.399 405.626 219.333C406.593 221.254 407.077 231.852 407.077 231.852L402.738 242.92L392.138 247.259L392.622 258.34C392.622 258.34 404.659 262.195 411.887 262.679C419.114 263.162 428.263 268.455 428.263 268.455C430.668 274.714 444.639 303.607 446.56 305.058C448.125 306.228 463.624 306.763 469.426 306.928C473.294 302.755 476.119 302.068 476.424 300.236C476.908 297.348 476.908 290.605 479.313 287.233C481.718 283.862 503.871 273.264 503.871 273.264C503.871 273.264 509.164 263.149 513.019 257.373C516.875 251.597 526.991 244.854 539.511 241.966C545.708 240.541 553.559 239.701 559.909 239.218L559.743 237.64L559.858 232.997V232.984Z" fill="#EAEAEA"/>
<path d="M469.425 306.916C463.623 306.75 448.124 306.216 446.559 305.045C444.638 303.595 430.667 274.702 428.262 268.442C428.262 268.442 419.113 263.15 411.886 262.666C404.658 262.183 392.621 258.328 392.621 258.328L392.137 247.246L402.737 242.908L407.076 231.839C407.076 231.839 406.592 221.241 405.625 219.32C404.658 217.399 398.881 205.834 397.444 198.608C395.993 191.381 390.216 171.165 390.216 171.165C390.216 171.165 385.546 168.328 381.513 165.312C373.535 167.463 365.124 168.302 362.401 165.58C362.324 165.503 362.274 165.414 362.21 165.338C360.607 166.572 358.863 168.15 357.96 169.727C356.039 173.099 350.733 182.246 347.844 185.134C344.956 188.022 343.022 195.732 342.551 200.542C342.245 203.633 341.927 220.58 342.004 233.366C342.042 240.516 342.207 246.356 342.551 247.743C343.518 251.598 350.262 251.114 351.7 254.486C353.15 257.857 356.039 271.827 356.039 274.231C356.039 276.636 346.406 304.091 346.406 308.417C346.406 310.643 351.623 316.674 356.688 322.03C361.485 327.094 366.154 331.534 366.154 331.534C373.865 331.05 385.903 326.241 390.712 322.87C395.535 319.498 400.345 322.386 400.345 322.386C400.345 322.386 403.717 328.646 408.056 329.129C412.395 329.613 426.837 325.758 432.613 325.758C435.578 325.758 448.226 325.376 459.818 325.007C463.814 324.88 467.669 324.753 470.977 324.638C471.448 315.618 471.626 306.979 471.626 306.979C471.626 306.979 470.799 306.966 469.45 306.928L469.425 306.916Z" fill="#EAEAEA"/>
<path d="M568.84 324.372L559.895 239.207C553.545 239.69 545.694 240.53 539.498 241.955C526.977 244.843 516.861 251.586 513.006 257.362C509.15 263.138 503.857 273.253 503.857 273.253C503.857 273.253 481.704 283.851 479.299 287.222C476.894 290.594 476.894 297.337 476.41 300.225C476.105 302.057 473.28 302.744 469.412 306.917C470.761 306.955 471.588 306.968 471.588 306.968C471.588 306.968 471.41 315.607 470.939 324.627C470.939 324.869 470.914 325.098 470.901 325.339C471.664 325.479 472.39 325.746 473.039 326.23C476.779 329.042 480.304 330.403 482.989 330.39C484.452 330.39 485.674 329.97 486.514 329.131C488.918 326.726 490.369 323.355 490.369 323.355L512.522 323.838L517.815 337.808L556.574 353.609C556.904 352.286 557.286 351.154 557.782 350.327C558.788 348.66 560.416 345.098 562.121 341.154C565.353 333.673 568.865 324.805 568.865 324.805L568.814 324.385L568.84 324.372Z" fill="#EAEAEA"/>
<ellipse opacity="0.3" cx="311.5" cy="299.5" rx="27.5" ry="7.5" fill="#173B58"/>
<ellipse opacity="0.6" cx="311.5" cy="292.5" rx="22.5" ry="5.5" fill="#173B58"/>
<path fill-rule="evenodd" clip-rule="evenodd" d="M311.5 281.128C318.535 281.128 327.488 266.419 327.488 252.988C327.488 244.158 320.33 237 311.5 237C302.67 237 295.512 244.158 295.512 252.988C295.512 265.14 304.465 281.128 311.5 281.128ZM311.5 261.303C316.092 261.303 319.814 257.58 319.814 252.989C319.814 248.397 316.092 244.675 311.5 244.675C306.908 244.675 303.186 248.397 303.186 252.989C303.186 257.58 306.908 261.303 311.5 261.303Z" fill="#173B58"/>
<ellipse opacity="0.3" cx="246.5" cy="458.5" rx="27.5" ry="7.5" fill="#173B58"/>
<ellipse opacity="0.6" cx="246.5" cy="451.5" rx="22.5" ry="5.5" fill="#173B58"/>
<path fill-rule="evenodd" clip-rule="evenodd" d="M246.5 440.128C253.535 440.128 262.488 425.419 262.488 411.988C262.488 403.158 255.33 396 246.5 396C237.67 396 230.512 403.158 230.512 411.988C230.512 424.14 239.465 440.128 246.5 440.128ZM246.5 420.303C251.092 420.303 254.814 416.58 254.814 411.989C254.814 407.397 251.092 403.675 246.5 403.675C241.908 403.675 238.186 407.397 238.186 411.989C238.186 416.58 241.908 420.303 246.5 420.303Z" fill="#173B58"/>
<ellipse opacity="0.3" cx="325.5" cy="597.5" rx="27.5" ry="7.5" fill="#173B58"/>
<ellipse opacity="0.6" cx="325.5" cy="590.5" rx="22.5" ry="5.5" fill="#173B58"/>
<path fill-rule="evenodd" clip-rule="evenodd" d="M325.5 579.128C332.535 579.128 341.488 564.419 341.488 550.988C341.488 542.158 334.33 535 325.5 535C316.67 535 309.512 542.158 309.512 550.988C309.512 563.14 318.465 579.128 325.5 579.128ZM325.5 559.303C330.092 559.303 333.814 555.58 333.814 550.989C333.814 546.397 330.092 542.675 325.5 542.675C320.908 542.675 317.186 546.397 317.186 550.989C317.186 555.58 320.908 559.303 325.5 559.303Z" fill="#173B58"/>
<ellipse opacity="0.3" cx="695.5" cy="375.5" rx="27.5" ry="7.5" fill="#173B58"/>
<ellipse opacity="0.6" cx="695.5" cy="368.5" rx="22.5" ry="5.5" fill="#173B58"/>
<path fill-rule="evenodd" clip-rule="evenodd" d="M695.5 357.128C702.535 357.128 711.488 342.419 711.488 328.988C711.488 320.158 704.33 313 695.5 313C686.67 313 679.512 320.158 679.512 328.988C679.512 341.14 688.465 357.128 695.5 357.128ZM695.5 337.303C700.092 337.303 703.814 333.58 703.814 328.989C703.814 324.397 700.092 320.675 695.5 320.675C690.908 320.675 687.186 324.397 687.186 328.989C687.186 333.58 690.908 337.303 695.5 337.303Z" fill="#173B58"/>
</svg>
