<svg width="200" height="206" viewBox="0 0 200 206" fill="none" xmlns="http://www.w3.org/2000/svg">
<rect y="143.418" width="200" height="61.6011" rx="30.8005" fill="#305BC4"/>
<ellipse cx="100.138" cy="171.573" rx="7.327" ry="7.25916" transform="rotate(-180 100.138 171.573)" fill="#FFC226"/>
<path d="M86.8862 142.104C85.2151 137.537 88.5965 132.699 93.46 132.699L106.467 132.699C111.35 132.699 114.733 137.573 113.025 142.147L107.361 157.32C106.339 160.057 103.725 161.872 100.803 161.872L99.0108 161.872C96.0723 161.872 93.4466 160.036 92.437 157.277L86.8862 142.104Z" fill="#FFC226"/>
<ellipse cx="100.138" cy="63.2279" rx="57.2592" ry="57.2592" fill="#FFE3AD"/>
<path d="M42.8762 43.9901C42.8762 19.6955 68.512 0.000832729 100.135 0.000835493C131.759 0.000838258 157.395 19.6955 157.395 43.9901C157.395 68.2848 131.759 57.9062 100.135 57.9062C68.512 57.9062 42.8762 68.2847 42.8762 43.9901Z" fill="#0A0A0A"/>
</svg>
